<?xml version="1.0" standalone="no"?>
<!DOCTYPE svg PUBLIC "-//W3C//DTD SVG 20010904//EN"
 "http://www.w3.org/TR/2001/REC-SVG-20010904/DTD/svg10.dtd">
<svg version="1.0" xmlns="http://www.w3.org/2000/svg"
 width="700.000000pt" height="700.000000pt" viewBox="0 0 700.000000 700.000000"
 preserveAspectRatio="xMidYMid meet">
<metadata>
Created by potrace 1.14, written by Peter Selinger 2001-2017
</metadata>
<g transform="translate(0.000000,700.000000) scale(0.100000,-0.100000)"
fill="#000000" stroke="none">
<path d="M1837 6994 c-1 -1 -31 -5 -67 -8 -395 -41 -835 -278 -1205 -650 -293
-294 -459 -588 -536 -946 -32 -150 -31 -401 2 -573 5 -28 9 -51 9 -53 0 -2 4
-4 8 -4 4 0 14 28 21 63 85 405 228 804 380 1061 101 172 164 251 320 406 286
283 508 436 711 489 134 36 222 33 151 -4 -17 -8 -35 -15 -42 -15 -22 0 -234
-108 -304 -155 -222 -149 -415 -346 -575 -588 -85 -127 -222 -391 -288 -552
-73 -180 -152 -438 -166 -542 -3 -22 -8 -52 -11 -65 -24 -107 -29 -346 -29
-1368 0 -937 6 -1316 19 -1380 3 -14 8 -41 11 -60 45 -254 185 -537 384 -774
36 -43 174 -182 251 -251 310 -283 565 -429 1049 -600 126 -45 260 -113 315
-160 39 -33 40 -34 20 -50 -36 -29 -102 -55 -122 -48 -10 3 -31 16 -48 29 -56
41 -117 66 -284 114 -343 100 -546 196 -786 373 -290 214 -580 550 -725 842
-99 198 -164 410 -184 600 -3 28 -9 77 -13 110 -4 33 -7 64 -7 69 -2 18 -24
17 -30 -2 -7 -20 -31 -152 -44 -232 -9 -60 -9 -310 0 -380 29 -211 125 -455
261 -660 80 -121 230 -302 304 -366 37 -32 77 -67 88 -78 127 -117 304 -236
480 -322 113 -55 305 -128 369 -140 12 -2 32 -6 46 -9 56 -13 131 -24 220 -32
92 -8 3354 -7 3465 2 258 20 540 124 796 293 95 62 279 207 319 251 8 9 49 55
90 101 41 47 85 96 98 110 39 40 156 199 200 272 110 180 180 368 209 563 10
64 10 321 0 405 -14 121 -33 198 -47 183 -4 -4 -15 -53 -25 -108 -57 -329
-163 -610 -317 -840 -62 -93 -218 -281 -305 -370 -306 -312 -617 -496 -1071
-634 -176 -53 -205 -66 -279 -123 -49 -37 -53 -39 -91 -29 -39 11 -92 45 -92
60 0 17 79 85 136 117 34 19 134 61 222 93 419 154 648 284 996 563 54 43 137
133 162 175 14 23 31 40 37 37 14 -5 179 214 250 330 129 215 206 448 224 683
9 116 9 2373 0 2483 -41 521 -336 1189 -702 1589 -185 202 -361 338 -570 443
-141 70 -142 89 -1 56 113 -25 286 -110 420 -206 167 -119 459 -438 561 -613
6 -10 31 -53 56 -96 126 -213 227 -457 309 -748 17 -60 33 -118 35 -127 25
-117 83 -267 85 -223 1 11 4 31 7 45 3 14 6 140 6 280 1 275 -7 344 -59 500
-75 223 -246 488 -442 685 -450 452 -770 633 -1237 701 -49 7 -265 17 -265 12
0 -2 30 -26 68 -53 37 -27 117 -86 177 -131 491 -363 847 -775 1086 -1254 140
-283 222 -534 256 -785 4 -33 8 -634 8 -1335 0 -1184 -1 -1281 -18 -1353 -59
-262 -187 -497 -386 -712 -277 -297 -640 -543 -1003 -679 -54 -20 -142 -52
-195 -72 -196 -72 -344 -168 -396 -256 -37 -63 -66 -86 -148 -116 l-74 -26
-285 1 c-157 1 -555 2 -885 3 l-600 0 -24 45 c-13 25 -55 74 -93 111 -125 118
-257 190 -508 279 -339 120 -559 236 -803 423 -300 229 -572 590 -663 877 -54
172 -54 155 -50 1530 2 699 5 1284 8 1300 3 17 9 50 13 75 30 200 124 462 262
734 172 339 349 579 573 780 30 27 89 81 130 121 139 131 265 231 460 363 58
39 121 85 140 102 l35 31 -108 -2 c-59 -2 -108 -3 -110 -5z"/>
<path d="M4874 6877 l-9 -42 -360 -1 c-198 -1 -819 -3 -1379 -5 l-1020 -4 -8
33 c-10 39 -23 40 -74 6 -35 -24 -61 -47 -199 -179 -27 -27 -99 -91 -160 -143
-566 -487 -876 -966 -1039 -1607 -27 -106 -32 -133 -42 -205 -3 -25 -7 -52 -9
-60 -16 -61 -20 -346 -19 -1330 0 -619 3 -1147 7 -1175 20 -149 98 -322 213
-475 89 -117 274 -299 475 -465 91 -76 402 -286 481 -326 31 -16 70 -31 87
-34 17 -3 45 -7 63 -11 18 -3 63 0 100 7 60 11 68 15 68 34 0 29 -11 38 -185
140 -134 79 -372 230 -385 245 -3 3 -23 18 -45 34 -237 173 -418 354 -542 540
-79 117 -152 308 -169 441 -3 28 -8 54 -11 59 -6 9 -11 512 -14 1421 -2 593
-1 625 19 735 29 157 32 173 37 180 2 4 7 21 10 39 13 77 112 396 144 466 5
11 24 56 41 100 79 197 221 450 350 623 98 132 376 401 520 505 234 167 264
185 323 202 58 17 144 18 1342 20 993 1 1295 -1 1346 -11 72 -14 148 -48 195
-87 16 -14 82 -63 147 -110 133 -98 171 -130 281 -242 193 -196 326 -384 447
-630 100 -205 144 -321 273 -717 95 -294 112 -350 123 -413 5 -26 3 -1582 -2
-1870 -2 -121 -7 -236 -9 -255 -44 -295 -204 -543 -546 -850 -162 -146 -314
-252 -612 -430 -59 -35 -126 -80 -150 -100 l-42 -37 34 -18 c47 -24 177 -25
248 -1 51 17 349 210 500 323 145 110 307 264 435 416 163 194 259 395 285
597 6 49 8 1966 2 2210 -2 52 -8 145 -15 205 -12 102 -17 130 -30 195 -2 14
-7 37 -10 53 -12 63 -17 86 -40 167 -67 237 -193 536 -290 690 -14 22 -25 42
-25 45 0 14 -129 198 -191 271 -96 116 -334 350 -473 467 -65 55 -157 137
-205 182 -47 45 -106 101 -131 124 -45 43 -100 82 -131 93 -13 5 -18 -3 -25
-35z"/>
<path d="M4420 6462 c0 -5 51 -27 113 -47 148 -50 271 -103 371 -161 73 -42
104 -63 201 -137 16 -12 70 -62 119 -110 48 -48 97 -92 107 -98 10 -5 18 -14
16 -18 -1 -5 48 -60 108 -123 61 -62 136 -143 169 -181 57 -66 142 -134 153
-123 12 12 -19 124 -56 200 -100 206 -292 417 -500 551 -189 122 -455 215
-686 239 -33 4 -72 9 -87 12 -16 3 -28 1 -28 -4z"/>
<path d="M2245 6406 c-178 -46 -266 -76 -353 -120 -199 -101 -383 -267 -516
-466 -113 -168 -172 -304 -149 -345 8 -13 72 47 344 323 292 296 347 347 441
409 122 82 238 139 371 184 212 72 123 82 -138 15z"/>
<path d="M3111 6306 c-6 -7 -9 -83 -8 -170 l1 -159 -36 -2 c-19 -2 -45 -6 -57
-10 -62 -19 -71 -17 -72 17 -1 18 -2 56 -4 83 -2 28 -4 89 -5 138 -1 57 -6 87
-14 88 -6 1 -31 2 -55 3 l-45 1 -2 -70 c-2 -38 -5 -128 -8 -200 -2 -71 -5
-131 -5 -131 -1 -1 -25 -4 -53 -7 -29 -3 -63 -8 -75 -12 l-22 -7 2 165 c3 187
-7 252 -38 253 -31 1 -58 -11 -60 -27 -2 -8 -6 -60 -9 -114 -4 -55 -9 -107
-11 -115 -2 -8 -6 -58 -10 -110 -4 -52 -10 -98 -13 -102 -4 -4 -77 -42 -162
-85 -308 -156 -505 -308 -722 -558 -145 -168 -312 -437 -388 -625 -12 -30 -26
-64 -30 -75 -68 -163 -128 -426 -146 -635 -64 -731 208 -1483 697 -1932 374
-343 668 -511 1084 -618 82 -21 262 -55 318 -59 5 -1 6 -9 3 -18 -6 -20 -12
-70 -21 -158 -4 -33 -8 -71 -10 -85 -2 -14 -7 -52 -11 -85 -3 -33 -8 -63 -11
-68 -2 -4 -6 -67 -8 -140 -4 -148 7 -201 61 -278 27 -40 79 -80 114 -87 66
-13 130 -18 224 -16 148 3 186 10 238 43 84 54 116 120 119 248 2 62 -2 97
-31 268 -10 61 -21 133 -25 160 -7 56 -12 87 -24 162 l-8 53 51 1 c78 2 112 7
226 34 405 98 763 280 1074 545 60 51 83 75 89 93 4 10 11 15 17 12 5 -3 10
-2 10 4 0 5 30 40 66 78 259 266 470 664 563 1063 74 314 84 572 36 885 -21
140 -22 147 -51 264 -77 310 -215 605 -402 854 -83 111 -287 320 -422 434
-321 269 -756 458 -1143 498 -38 4 -70 13 -72 19 -2 6 -6 40 -9 76 -5 67 -21
167 -31 202 -6 16 -14 19 -48 16 l-42 -3 3 -151 2 -151 -75 -1 c-48 -1 -77 3
-82 11 -4 6 -8 35 -9 63 -3 80 -15 214 -20 229 -4 8 -21 12 -52 11 l-47 -1 0
-152 c0 -83 -3 -154 -5 -157 -10 -9 -170 -18 -171 -10 -2 13 -6 107 -9 204 -2
47 -7 92 -11 101 -9 19 -84 22 -98 5z m582 -402 c9 -3 17 -13 18 -22 0 -9 2
-28 4 -42 2 -14 6 -70 9 -125 4 -55 9 -127 11 -160 4 -58 10 -169 20 -366 8
-164 8 -353 1 -387 -6 -25 -18 -38 -49 -54 -41 -22 -48 -22 -497 -20 -250 0
-469 4 -486 7 -27 5 -33 12 -54 72 -23 66 -23 70 -23 496 0 493 -7 456 100
481 34 7 64 12 66 10 2 -2 2 -77 1 -167 -9 -413 -11 -647 -5 -648 56 -6 151
-2 154 6 2 5 3 28 1 50 -1 22 -5 101 -9 175 -3 74 -8 168 -10 209 -2 41 -7
147 -11 235 -3 89 -7 165 -8 170 -1 12 46 36 82 42 15 2 42 6 60 9 17 3 32 2
33 -2 4 -45 9 -258 13 -539 2 -188 6 -346 9 -350 4 -7 81 -10 145 -5 13 1 13
57 -3 221 -2 25 -7 90 -10 145 -4 55 -8 116 -10 135 -14 145 -21 407 -12 417
11 10 174 17 180 7 3 -5 8 -99 11 -209 3 -110 9 -294 12 -410 4 -115 7 -229 8
-253 0 -23 7 -46 14 -51 7 -4 43 -7 80 -6 l67 2 -1 39 c-1 44 -14 206 -19 244
-2 14 -7 66 -11 115 -3 50 -8 97 -9 106 -2 8 -6 55 -10 105 -3 49 -8 96 -10
104 -9 35 -17 209 -10 220 7 11 116 7 158 -6z m273 -23 c134 -27 327 -90 464
-151 244 -109 431 -241 645 -456 164 -166 225 -237 328 -390 71 -105 207 -365
207 -396 0 -8 4 -18 9 -23 15 -17 90 -262 110 -364 29 -142 37 -203 46 -331 9
-115 9 -263 1 -330 -4 -30 -9 -73 -12 -95 -30 -239 -113 -508 -227 -730 -113
-222 -234 -385 -415 -565 -294 -291 -583 -463 -982 -583 -63 -19 -128 -38
-145 -41 -16 -3 -50 -10 -74 -16 -51 -12 -180 -20 -185 -11 -2 3 -7 31 -11 61
-4 30 -9 71 -11 90 -15 116 -31 270 -49 465 -12 127 -14 149 -20 215 -3 36 -7
83 -9 105 -2 22 -7 85 -11 140 -3 55 -8 111 -10 125 -2 14 -7 74 -10 133 -3
59 -8 124 -10 145 -11 122 -20 319 -19 467 1 202 14 255 117 480 108 234 151
364 191 570 24 126 27 176 26 400 -1 261 -5 336 -25 525 -1 14 -6 61 -10 105
-4 44 -9 82 -10 85 -2 3 -6 46 -10 95 -4 50 -9 98 -11 109 -2 10 -6 59 -10
108 -6 85 -5 90 12 84 11 -3 64 -14 120 -25z m-1455 -203 c1 -7 2 -206 3 -443
2 -375 10 -627 22 -646 2 -3 6 -30 9 -60 11 -96 53 -247 91 -327 71 -148 152
-232 323 -332 l93 -55 53 -105 c75 -151 83 -182 90 -335 19 -436 26 -1478 12
-1755 -6 -128 -14 -200 -23 -209 -5 -5 -114 -2 -134 4 -8 3 -35 7 -60 9 -133
14 -372 96 -549 188 -324 167 -588 396 -807 697 -201 278 -355 670 -400 1016
-19 152 -25 424 -11 585 24 305 163 680 361 978 138 207 288 369 512 553 190
156 266 205 359 235 52 16 55 16 56 2z"/>
<path d="M2275 6085 c-341 -109 -661 -336 -885 -625 -19 -25 -47 -58 -61 -75
-36 -41 -125 -142 -163 -185 -182 -204 -307 -401 -349 -550 -19 -66 -32 -184
-22 -200 4 -7 38 36 82 102 63 94 139 194 244 323 66 80 146 177 178 215 21
25 80 94 131 155 150 178 235 271 399 435 198 197 295 274 437 347 93 47 109
59 91 65 -30 8 -36 8 -82 -7z"/>
<path d="M4627 6093 c-4 -3 38 -30 93 -59 122 -64 212 -127 294 -206 33 -33
73 -66 89 -74 15 -8 27 -20 27 -28 0 -7 11 -18 25 -24 14 -6 25 -18 25 -26 0
-7 30 -45 68 -83 37 -38 96 -103 132 -143 36 -41 74 -84 85 -96 58 -64 88 -99
171 -199 50 -60 150 -184 223 -275 73 -91 138 -172 146 -182 7 -9 56 -82 109
-162 53 -80 99 -146 102 -146 13 0 -9 164 -33 250 -29 102 -119 260 -205 362
-13 14 -61 75 -108 134 -47 59 -90 112 -95 118 -6 6 -76 90 -156 186 -187 224
-307 341 -458 444 -139 96 -302 169 -438 196 -32 6 -65 13 -74 16 -8 2 -19 1
-22 -3z"/>
</g>
</svg>
